<svg xmlns="http://www.w3.org/2000/svg" version="1.1" xmlns:xlink="http://www.w3.org/1999/xlink" xmlns:svgjs="http://svgjs.dev/svgjs" width="1500" height="1500" viewBox="0 0 1500 1500"><rect width="1500" height="1500" fill="#ffffff"></rect><g transform="matrix(0.6666666666666666,0,0,0.6666666666666666,250.46037093895688,242.41133603238865)"><svg viewBox="0 0 243 247" data-background-color="#ffffff" preserveAspectRatio="xMidYMid meet" height="1524" width="1500" xmlns="http://www.w3.org/2000/svg" xmlns:xlink="http://www.w3.org/1999/xlink"><g id="tight-bounds" transform="matrix(1,0,0,1,-0.11187013816652325,-0.09999999999999432)"><svg viewBox="0 0 243.22374027633302 247.2" height="247.2" width="243.22374027633302"><g><svg viewBox="0 0 395.52 401.98602278263616" height="247.2" width="243.22374027633302"><g transform="matrix(1,0,0,1,0,263.90583726940184)"><svg viewBox="0 0 395.52 138.0801855132343" height="138.0801855132343" width="395.52"><g id="textblocktransform"><svg viewBox="0 0 395.52 138.0801855132343" height="138.0801855132343" width="395.52" id="textblock"><g><svg viewBox="0 0 395.52 74.47385409941897" height="74.47385409941897" width="395.52"><g transform="matrix(1,0,0,1,0,0)"><svg width="395.52" viewBox="1.05 -43.35 231.32999999999998 43.75" height="74.47385409941897" data-palette-color="#f5ba41"><g class="wordmark-text-0" data-fill-palette-color="primary" id="text-0"><path d="M12.1 0.4Q6.25 0.4 3.65-2.5 1.05-5.4 1.05-11.85L1.05-11.85 1.05-16.05 9.5-16.05 9.5-10.7Q9.5-7.5 11.55-7.5L11.55-7.5Q12.7-7.5 13.15-8.18 13.6-8.85 13.6-10.45L13.6-10.45Q13.6-12.55 13.1-13.93 12.6-15.3 11.83-16.23 11.05-17.15 9.05-19.1L9.05-19.1 5.35-22.8Q1.05-27 1.05-32.1L1.05-32.1Q1.05-37.6 3.58-40.48 6.1-43.35 10.95-43.35L10.95-43.35Q16.75-43.35 19.3-40.28 21.85-37.2 21.85-30.65L21.85-30.65 13.1-30.65 13.05-33.6Q13.05-34.45 12.58-34.95 12.1-35.45 11.25-35.45L11.25-35.45Q10.25-35.45 9.75-34.9 9.25-34.35 9.25-33.4L9.25-33.4Q9.25-31.3 11.65-29.05L11.65-29.05 16.65-24.25Q18.4-22.55 19.55-21.03 20.7-19.5 21.4-17.43 22.1-15.35 22.1-12.5L22.1-12.5Q22.1-6.15 19.78-2.88 17.45 0.4 12.1 0.4L12.1 0.4ZM32.35 0.4Q28.9 0.4 27.6-1.05 26.3-2.5 26.3-5.7L26.3-5.7 26.3-28.55 23.85-28.55 23.85-35.2 26.3-35.2 26.3-42.95 34.8-42.95 34.8-35.2 37.3-35.2 37.3-28.55 34.8-28.55 34.8-8Q34.8-7.05 34.95-6.6 35.1-6.15 35.75-6.15L35.75-6.15Q36.25-6.15 36.7-6.2 37.15-6.25 37.3-6.25L37.3-6.25 37.3-0.25Q36.55-0.05 35.12 0.18 33.7 0.4 32.35 0.4L32.35 0.4ZM47.09 0.4Q43 0.4 41.47-2.05 39.95-4.5 39.95-9.35L39.95-9.35 39.95-36.6 48.75-36.6 48.75-11.1Q48.75-10.75 48.75-9.22 48.75-7.7 49.22-7.08 49.7-6.45 50.7-6.45L50.7-6.45Q52.05-6.45 52.4-7.58 52.75-8.7 52.75-10.8L52.75-10.8 52.75-11.1 52.8-36.6 61.5-36.6 61.5 0 52.75 0 52.75-3.9Q51.84-1.6 50.65-0.6 49.45 0.4 47.09 0.4L47.09 0.4ZM72.19 0.4Q68.99 0.4 67.37-1.13 65.74-2.65 65.22-5.18 64.69-7.7 64.69-11.65L64.69-11.65 64.79-28.15Q64.79-32.05 66.77-34.52 68.74-37 72.34-37L72.34-37Q75.89-37 77.64-34.65L77.64-34.65 77.64-43.2 86.39-43.2 86.39 0 77.64 0 77.64-3.9Q76.89-1.75 75.62-0.68 74.34 0.4 72.19 0.4L72.19 0.4ZM75.54-6.45Q76.84-6.45 77.24-7.73 77.64-9 77.64-11.15L77.64-11.15 77.64-12.7 77.64-26.45Q77.64-28.05 77.19-29.15 76.74-30.25 75.59-30.25L75.59-30.25Q74.29-30.25 73.87-29.23 73.44-28.2 73.44-26.45L73.44-26.45 73.44-11.05Q73.44-6.45 75.54-6.45L75.54-6.45ZM100.14 0.4Q94.49 0.4 92.04-2.7 89.59-5.8 89.59-11.95L89.59-11.95 89.59-26.65Q89.59-31.7 92.49-34.35 95.39-37 100.59-37L100.59-37Q111.14-37 111.14-26.65L111.14-26.65 111.14-24Q111.14-20 111.04-17.5L111.04-17.5 98.34-17.5 98.34-10.4Q98.34-8.5 98.74-7.43 99.14-6.35 100.44-6.35L100.44-6.35Q101.44-6.35 101.87-6.95 102.29-7.55 102.37-8.33 102.44-9.1 102.44-10.6L102.44-10.6 102.44-14.15 111.14-14.15 111.14-12.05Q111.14-5.65 108.67-2.63 106.19 0.4 100.14 0.4L100.14 0.4ZM98.29-21.85L102.44-21.85 102.44-26.55Q102.44-30.5 100.49-30.5L100.49-30.5Q98.29-30.5 98.29-26.55L98.29-26.55 98.29-21.85ZM114.29 0L114.29-36.6 123.04-36.6 123.04-31.95Q123.59-34.2 124.94-35.6 126.29-37 128.54-37L128.54-37Q132.24-37 134.01-34.73 135.79-32.45 135.79-28.25L135.79-28.25 135.79 0 127.19 0 127.19-27.35Q127.19-28.55 126.71-29.4 126.24-30.25 125.24-30.25L125.24-30.25Q123.89-30.25 123.46-29.03 123.04-27.8 123.04-25.75L123.04-25.75 123.04 0 114.29 0ZM146.79 0.4Q143.34 0.4 142.04-1.05 140.74-2.5 140.74-5.7L140.74-5.7 140.74-28.55 138.29-28.55 138.29-35.2 140.74-35.2 140.74-42.95 149.24-42.95 149.24-35.2 151.74-35.2 151.74-28.55 149.24-28.55 149.24-8Q149.24-7.05 149.39-6.6 149.54-6.15 150.19-6.15L150.19-6.15Q150.69-6.15 151.14-6.2 151.59-6.25 151.74-6.25L151.74-6.25 151.74-0.25Q150.99-0.05 149.56 0.18 148.14 0.4 146.79 0.4L146.79 0.4Z" fill="#f5ba41" data-fill-palette-color="primary"></path><path d="M173.89 0L165.34 0 165.34-42.95 173.84-42.95 173.84-25.75 177.84-42.95 186.49-42.95 181.69-23.3 187.49 0 178.59 0 173.89-20.8 173.89 0ZM199.14 0.4Q193.29 0.4 190.69-2.5 188.08-5.4 188.08-11.85L188.08-11.85 188.08-16.05 196.54-16.05 196.54-10.7Q196.54-7.5 198.58-7.5L198.58-7.5Q199.74-7.5 200.19-8.18 200.64-8.85 200.64-10.45L200.64-10.45Q200.64-12.55 200.14-13.93 199.64-15.3 198.86-16.23 198.08-17.15 196.08-19.1L196.08-19.1 192.39-22.8Q188.08-27 188.08-32.1L188.08-32.1Q188.08-37.6 190.61-40.48 193.14-43.35 197.99-43.35L197.99-43.35Q203.79-43.35 206.33-40.28 208.89-37.2 208.89-30.65L208.89-30.65 200.14-30.65 200.08-33.6Q200.08-34.45 199.61-34.95 199.14-35.45 198.29-35.45L198.29-35.45Q197.29-35.45 196.79-34.9 196.29-34.35 196.29-33.4L196.29-33.4Q196.29-31.3 198.69-29.05L198.69-29.05 203.69-24.25Q205.44-22.55 206.58-21.03 207.74-19.5 208.44-17.43 209.14-15.35 209.14-12.5L209.14-12.5Q209.14-6.15 206.81-2.88 204.49 0.4 199.14 0.4L199.14 0.4ZM221.93 0.4Q216.63 0.4 214.06-2.6 211.48-5.6 211.48-11.5L211.48-11.5 211.48-42.95 219.83-42.95 219.83-11.85Q219.83-9.8 220.23-8.65 220.63-7.5 221.93-7.5L221.93-7.5Q223.23-7.5 223.63-8.63 224.03-9.75 224.03-11.85L224.03-11.85 224.03-42.95 232.38-42.95 232.38-11.5Q232.38-5.6 229.81-2.6 227.23 0.4 221.93 0.4L221.93 0.4Z" fill="#fce44d" data-fill-palette-color="secondary"></path></g></svg></g></svg></g><g transform="matrix(1,0,0,1,0,92.05534367979341)"><svg viewBox="0 0 395.52 46.024841833440924" height="46.024841833440924" width="395.52"><g transform="matrix(1,0,0,1,0,0)"><svg width="395.52" viewBox="3.85 -35.9 313.23999999999995 36.449999999999996" height="46.024841833440924" data-palette-color="#fce44d"><path d="M22.65-3.55L22.65 0 3.85 0 3.85-33.7 22.4-33.7 22.4-30.15 7.9-30.15 7.9-18.6 20.7-18.6 20.7-15.05 7.9-15.05 7.9-3.55 22.65-3.55ZM44.64-12.4L44.64-12.4Q44.64-8.3 46.64-5.75 48.64-3.2 51.69-3.2L51.69-3.2Q54.79-3.2 56.96-5.5 59.14-7.8 59.14-12.85L59.14-12.85Q59.14-17.65 56.89-19.9 54.64-22.15 51.94-22.15L51.94-22.15Q48.79-22.15 46.71-19.63 44.64-17.1 44.64-12.4ZM63.09-35.35L63.09 0 59.14 0 59.14-3.75Q56.44 0.4 51.34 0.4L51.34 0.4Q46.29 0.4 43.41-3.35 40.54-7.1 40.54-12.45L40.54-12.45Q40.54-18.4 43.59-22.08 46.64-25.75 51.44-25.75L51.44-25.75Q56.39-25.75 59.14-21.5L59.14-21.5 59.14-35.35 63.09-35.35ZM103.42-25.35L103.42 0 99.47 0 99.47-4.4Q97.47 0.3 91.52 0.3L91.52 0.3Q87.77 0.3 85.6-1.93 83.42-4.15 83.42-7.9L83.42-7.9 83.42-25.35 87.37-25.35 87.37-8.9Q87.37-6.15 88.77-4.7 90.17-3.25 92.57-3.25L92.57-3.25Q95.72-3.25 97.6-5.45 99.47-7.65 99.47-11.4L99.47-11.4 99.47-25.35 103.42-25.35ZM141.51-4.65L141.51-0.9Q139.11 0.55 135.61 0.55L135.61 0.55Q129.61 0.55 126.08-3.28 122.56-7.1 122.56-12.6L122.56-12.6Q122.56-18 126.08-21.9 129.61-25.8 135.71-25.8L135.71-25.8Q138.96-25.8 141.51-24.4L141.51-24.4 141.51-20.65Q139.21-22.2 136.11-22.2L136.11-22.2Q131.81-22.2 129.23-19.43 126.66-16.65 126.66-12.55L126.66-12.55Q126.71-8.45 129.16-5.73 131.61-3 136.11-3L136.11-3Q139.01-3 141.51-4.65L141.51-4.65ZM168.69-3.05L168.69-3.05Q171.39-3.05 172.99-4.58 174.59-6.1 174.59-8.45L174.59-8.45 174.59-11.7 170.19-11.7Q166.99-11.7 165.39-10.45 163.79-9.2 163.79-7.3 163.79-5.4 165.04-4.23 166.29-3.05 168.69-3.05ZM174.64 0L174.64-3Q172.69 0.25 167.54 0.25L167.54 0.25Q163.99 0.25 161.82-1.85 159.64-3.95 159.64-7.15L159.64-7.15Q159.64-10.8 162.42-12.83 165.19-14.85 169.99-14.85L169.99-14.85 174.59-14.85 174.59-16.15Q174.59-19.15 173.24-20.68 171.89-22.2 168.69-22.2L168.69-22.2Q164.64-22.2 161.49-20.05L161.49-20.05 161.49-24Q164.34-25.75 168.99-25.75L168.99-25.75Q178.54-25.75 178.54-16.05L178.54-16.05 178.54 0 174.64 0ZM211.58-4.4L211.58-0.65Q209.93 0.25 207.88 0.25L207.88 0.25Q200.38 0.25 200.38-7.4L200.38-7.4 200.38-22.15 196.33-22.15 196.33-25.35 200.38-25.35 200.38-31.65 204.33-31.65 204.33-25.35 211.33-25.35 211.33-22.15 204.33-22.15 204.33-7.3Q204.33-3.25 208.13-3.25L208.13-3.25Q210.08-3.25 211.58-4.4L211.58-4.4ZM234.82-25.35L234.82 0 230.87 0 230.87-25.35 234.82-25.35ZM234.67-35.15Q235.42-34.4 235.42-33.3 235.42-32.2 234.67-31.48 233.92-30.75 232.82-30.75 231.72-30.75 230.99-31.48 230.27-32.2 230.27-33.3 230.27-34.4 230.99-35.15 231.72-35.9 232.82-35.9 233.92-35.9 234.67-35.15ZM277.95-12.6L277.95-12.6Q277.95-6.95 274.75-3.25 271.55 0.45 265.95 0.45L265.95 0.45Q260.5 0.45 257.33-3.23 254.15-6.9 254.15-12.5L254.15-12.5Q254.15-18.15 257.43-21.93 260.7-25.7 265.95-25.7L265.95-25.7Q271.7-25.7 274.83-22 277.95-18.3 277.95-12.6ZM258.25-12.55L258.25-12.55Q258.25-8.6 260.35-5.83 262.45-3.05 265.95-3.05L265.95-3.05Q269.75-3.05 271.8-5.78 273.85-8.5 273.85-12.55L273.85-12.55Q273.85-16.75 271.9-19.48 269.95-22.2 265.95-22.2L265.95-22.2Q262.35-22.2 260.3-19.4 258.25-16.6 258.25-12.55ZM317.09-17.45L317.09 0 313.14 0 313.14-16.4Q313.14-19.2 311.71-20.68 310.29-22.15 307.99-22.15L307.99-22.15Q305.14-22.15 303.06-19.95 300.99-17.75 300.99-13.85L300.99-13.85 300.99 0 297.09 0 297.09-25.35 300.99-25.35 300.99-20.95Q303.24-25.7 308.99-25.7L308.99-25.7Q312.69-25.7 314.89-23.45 317.09-21.2 317.09-17.45L317.09-17.45Z" opacity="1" transform="matrix(1,0,0,1,0,0)" fill="#fce44d" class="slogan-text-1" data-fill-palette-color="secondary" id="text-1"></path></svg></g></svg></g></svg></g></svg></g><g transform="matrix(1,0,0,1,83.38857094567351,0)"><svg viewBox="0 0 228.74285810865297 228.74285810865297" height="228.74285810865297" width="228.74285810865297"><g><svg></svg></g><g id="icon-0"><svg viewBox="0 0 228.74285810865297 228.74285810865297" height="228.74285810865297" width="228.74285810865297"><g><path d="M0 114.371c0-63.166 51.206-114.371 114.371-114.371 63.166 0 114.371 51.206 114.372 114.371 0 63.166-51.206 114.371-114.372 114.372-63.166 0-114.371-51.206-114.371-114.372zM114.371 222.027c59.456 0 107.655-48.199 107.656-107.656 0-59.456-48.199-107.655-107.656-107.655-59.456 0-107.655 48.199-107.655 107.655 0 59.456 48.199 107.655 107.655 107.656z" data-fill-palette-color="accent" fill="#fce44d" stroke="transparent"></path></g><g transform="matrix(1,0,0,1,68.80211867455341,46.88958997870439)"><svg viewBox="0 0 91.13862075954613 134.96367815124418" height="134.96367815124418" width="91.13862075954613"><g><svg xmlns="http://www.w3.org/2000/svg" xmlns:xlink="http://www.w3.org/1999/xlink" version="1.1" x="0" y="0" viewBox="19 1.7439999999999998 65 96.256" enable-background="new 0 0 100 100" xml:space="preserve" height="134.96367815124418" width="91.13862075954613" class="icon-cg-0" data-fill-palette-color="accent" id="cg-0"><path fill="#fce44d" d="M51.971 37c9.729 0 17.627-7.896 17.627-17.617 0-9.738-7.898-17.639-17.627-17.639-9.738 0-17.625 7.9-17.625 17.639C34.345 29.104 42.232 37 51.971 37" data-fill-palette-color="accent"></path><g fill="#fce44d" data-fill-palette-color="accent"><path fill="#fce44d" d="M19 60.68v36.432c9.108-9.936 30 0.414 30 0.414V60.68C28 47.846 19 60.68 19 60.68z" data-fill-palette-color="accent"></path><path fill="#fce44d" d="M54 60.68v36.846c0 0 20-10.35 30-0.414V60.68C84 60.68 75 47.846 54 60.68z" data-fill-palette-color="accent"></path><rect x="50" y="61" fill="#fce44d" width="3" height="37" data-fill-palette-color="accent"></rect></g><path fill="#fce44d" d="M47.848 58h7.307c8.18-4.732 14.468-5.518 19.054-4.773-4.129-8.092-12.53-13.634-22.238-13.634-9.652 0-18.021 5.481-22.178 13.501C34.28 52.614 40.246 53.601 47.848 58z" data-fill-palette-color="accent"></path></svg></g></svg></g></svg></g></svg></g><g></g></svg></g><defs></defs></svg><rect width="243.22374027633302" height="247.2" fill="none" stroke="none" visibility="hidden"></rect></g></svg></g></svg>